<?xml version="1.0" encoding="UTF-8"?>
<svg width="71px" height="17px" viewBox="0 0 71 17" version="1.1" xmlns="http://www.w3.org/2000/svg" xmlns:xlink="http://www.w3.org/1999/xlink">
    <!-- Generator: Sketch 48.1 (47250) - http://www.bohemiancoding.com/sketch -->
    <title>TAMA</title>
    <desc>Created with Sketch.</desc>
    <defs></defs>
    <g id="Landing-Page" stroke="none" stroke-width="1" fill="none" fill-rule="evenodd" transform="translate(-23.000000, -28.000000)">
        <path d="M34.1522591,31.68 L31.2482591,31.68 L31.2482591,42.614 C31.2482591,43.428 30.5222591,44.11 29.6422591,44.11 C28.8062591,44.11 28.0362591,43.406 28.0362591,42.614 L28.0362591,31.68 L25.1322591,31.68 C24.4502591,31.68 23.8122591,30.998 23.8122591,30.272 C23.8122591,29.48 24.4062591,28.842 25.1322591,28.842 L34.1522591,28.842 C34.8782591,28.842 35.4722591,29.48 35.4722591,30.272 C35.4722591,30.998 34.8342591,31.68 34.1522591,31.68 Z M47.9169259,40.414 L42.7249259,40.414 L41.6909259,43.186 C41.4049259,43.934 40.4809259,44.286 39.6669259,44.022 C38.8749259,43.758 38.4349259,42.768 38.6989259,42.02 L43.0769259,30.228 C43.4289259,29.304 44.1329259,28.732 45.2549259,28.732 L45.3869259,28.732 C46.5089259,28.732 47.2129259,29.304 47.5649259,30.228 L51.9429259,42.02 C52.2069259,42.768 51.7669259,43.758 50.9749259,44.022 C50.1609259,44.286 49.2369259,43.934 48.9509259,43.186 L47.9169259,40.414 Z M43.7809259,37.62 L46.8609259,37.62 L45.3209259,32.34 L43.7809259,37.62 Z M66.1475926,38.61 L70.3275926,29.7 C70.7235926,28.864 71.1635926,28.732 71.7795926,28.732 L72.1095926,28.732 C72.8575926,28.732 73.4515926,29.414 73.5395926,30.162 L75.0575926,42.504 C75.1455926,43.274 74.4195926,44.044 73.5835926,44.11 C72.7255926,44.176 71.9555926,43.56 71.8675926,42.746 L70.9435926,34.914 L67.9295926,41.14 C67.6435926,41.756 67.0935926,42.482 66.1475926,42.482 C65.2015926,42.482 64.6735926,41.756 64.3875926,41.14 L61.3515926,34.914 L60.4275926,42.746 C60.3395926,43.56 59.5695926,44.176 58.7115926,44.11 C57.8755926,44.044 57.1275926,43.274 57.2375926,42.504 L58.7555926,30.162 C58.8435926,29.414 59.4375926,28.732 60.1855926,28.732 L60.5155926,28.732 C61.1315926,28.732 61.5935926,28.864 61.9675926,29.7 L66.1475926,38.61 Z M89.5702593,40.414 L84.3782593,40.414 L83.3442593,43.186 C83.0582593,43.934 82.1342593,44.286 81.3202593,44.022 C80.5282593,43.758 80.0882593,42.768 80.3522593,42.02 L84.7302593,30.228 C85.0822593,29.304 85.7862593,28.732 86.9082593,28.732 L87.0402593,28.732 C88.1622593,28.732 88.8662593,29.304 89.2182593,30.228 L93.5962593,42.02 C93.8602593,42.768 93.4202593,43.758 92.6282593,44.022 C91.8142593,44.286 90.8902593,43.934 90.6042593,43.186 L89.5702593,40.414 Z M85.4342593,37.62 L88.5142593,37.62 L86.9742593,32.34 L85.4342593,37.62 Z" id="TAMA" fill="#4A4A4A"></path>
    </g>
</svg>